ISO-10303-21;
HEADER;
FILE_DESCRIPTION(('ViewDefinition[DesignTransferView]'),'2;1');
FILE_NAME('/dev/null','2026-08-14T12:33:42+01:00',(''),(''),'IfcOpenShell 0.8.4.post1','IfcOpenShell 0.8.4.post1','Nobody');
FILE_SCHEMA(('IFC4'));
ENDSEC;
DATA;
#1=IFCPROJECT('09yEQhUhn5cBJnVkTs33nH',$,'ARMIE Demo Project',$,$,$,$,(#14),#9);
#2=IFCSITE('1lxZw7iIvBexakKgzC0kXZ',$,'ARMIE Demo Site',$,$,$,$,$,$,$,$,$,$,$);
#3=IFCBUILDING('2Hz913v_DERfHx3hOq4Ahn',$,'ARMIE Demo Building',$,$,$,$,$,$,$,$,$);
#4=IFCBUILDINGSTOREY('2fUQ5eYQfC9RmtUuxcJ1FD',$,'Level 01',$,$,$,$,$,$,0.);
#5=IFCBUILDINGSTOREY('2HWn4boKP2EvCbERAGCY6u',$,'Level 02',$,$,$,$,$,$,3.2);
#6=IFCSIUNIT(*,.LENGTHUNIT.,$,.METRE.);
#7=IFCSIUNIT(*,.AREAUNIT.,$,.SQUARE_METRE.);
#8=IFCSIUNIT(*,.VOLUMEUNIT.,$,.CUBIC_METRE.);
#9=IFCUNITASSIGNMENT((#7,#8,#6));
#10=IFCCARTESIANPOINT((0.,0.,0.));
#11=IFCDIRECTION((0.,0.,1.));
#12=IFCDIRECTION((1.,0.,0.));
#13=IFCAXIS2PLACEMENT3D(#10,#11,#12);
#14=IFCGEOMETRICREPRESENTATIONCONTEXT($,'Model',3,1.E-05,#13,$);
#15=IFCGEOMETRICREPRESENTATIONSUBCONTEXT('Body','Model',*,*,*,*,#14,$,.MODEL_VIEW.,$);
#16=IFCRELAGGREGATES('1018NdSJzFkw48YFeI4gTh',$,$,$,#1,(#2));
#17=IFCRELAGGREGATES('0Ngzaqw_v79B_ZCwddBEXm',$,$,$,#2,(#3));
#18=IFCRELAGGREGATES('2Jyoq6rW9FSeVwbERRcYj9',$,$,$,#3,(#4,#5));
#19=IFCWALL('24MXcZDAX8_e0uDG2M24QA',$,'Level 01 perimeter wall',$,$,#102,#35,$,$);
#20=IFCCARTESIANPOINTLIST2D(((0.,0.),(0.,0.2),(12.,0.2),(12.,0.),(0.,0.)));
#21=IFCINDEXEDPOLYCURVE(#20,$,.F.);
#22=IFCDIRECTION((0.,0.,1.));
#23=IFCARBITRARYCLOSEDPROFILEDEF(.AREA.,$,#21);
#24=IFCCARTESIANPOINT((0.,0.,0.));
#25=IFCDIRECTION((0.,0.,1.));
#26=IFCDIRECTION((1.,0.,0.));
#27=IFCAXIS2PLACEMENT3D(#24,#25,#26);
#28=IFCEXTRUDEDAREASOLID(#23,#27,#22,3.);
#29=IFCSHAPEREPRESENTATION(#15,'Body','SweptSolid',(#28));
#35=IFCPRODUCTDEFINITIONSHAPE($,$,(#29));
#36=IFCWALL('1wF9b7jpn9zuK9KRuOo3Bj',$,'Level 01 perimeter wall',$,$,#107,#52,$,$);
#37=IFCCARTESIANPOINTLIST2D(((0.,0.),(0.,0.2),(8.,0.2),(8.,0.),(0.,0.)));
#38=IFCINDEXEDPOLYCURVE(#37,$,.F.);
#39=IFCDIRECTION((0.,0.,1.));
#40=IFCARBITRARYCLOSEDPROFILEDEF(.AREA.,$,#38);
#41=IFCCARTESIANPOINT((0.,0.,0.));
#42=IFCDIRECTION((0.,0.,1.));
#43=IFCDIRECTION((1.,0.,0.));
#44=IFCAXIS2PLACEMENT3D(#41,#42,#43);
#45=IFCEXTRUDEDAREASOLID(#40,#44,#39,3.);
#46=IFCSHAPEREPRESENTATION(#15,'Body','SweptSolid',(#45));
#52=IFCPRODUCTDEFINITIONSHAPE($,$,(#46));
#53=IFCWALL('18OX227jnBHhR2bsFKHdgV',$,'Level 01 perimeter wall',$,$,#92,#69,$,$);
#54=IFCCARTESIANPOINTLIST2D(((0.,0.),(0.,0.2),(12.,0.2),(12.,0.),(0.,0.)));
#55=IFCINDEXEDPOLYCURVE(#54,$,.F.);
#56=IFCDIRECTION((0.,0.,1.));
#57=IFCARBITRARYCLOSEDPROFILEDEF(.AREA.,$,#55);
#58=IFCCARTESIANPOINT((0.,0.,0.));
#59=IFCDIRECTION((0.,0.,1.));
#60=IFCDIRECTION((1.,0.,0.));
#61=IFCAXIS2PLACEMENT3D(#58,#59,#60);
#62=IFCEXTRUDEDAREASOLID(#57,#61,#56,3.);
#63=IFCSHAPEREPRESENTATION(#15,'Body','SweptSolid',(#62));
#69=IFCPRODUCTDEFINITIONSHAPE($,$,(#63));
#70=IFCWALL('2AkcDvuJjDwf2vlmPadMk6',$,'Level 01 perimeter wall',$,$,#97,#86,$,$);
#71=IFCCARTESIANPOINTLIST2D(((0.,0.),(0.,0.2),(8.,0.2),(8.,0.),(0.,0.)));
#72=IFCINDEXEDPOLYCURVE(#71,$,.F.);
#73=IFCDIRECTION((0.,0.,1.));
#74=IFCARBITRARYCLOSEDPROFILEDEF(.AREA.,$,#72);
#75=IFCCARTESIANPOINT((0.,0.,0.));
#76=IFCDIRECTION((0.,0.,1.));
#77=IFCDIRECTION((1.,0.,0.));
#78=IFCAXIS2PLACEMENT3D(#75,#76,#77);
#79=IFCEXTRUDEDAREASOLID(#74,#78,#73,3.);
#80=IFCSHAPEREPRESENTATION(#15,'Body','SweptSolid',(#79));
#86=IFCPRODUCTDEFINITIONSHAPE($,$,(#80));
#87=IFCRELCONTAINEDINSPATIALSTRUCTURE('1CETBrkqL5VBkedbEg3zvL',$,$,$,(#53,#197,#70,#108,#36,#345,#19,#256),#4);
#88=IFCCARTESIANPOINT((12.,8.,0.));
#89=IFCDIRECTION((0.,0.,1.));
#90=IFCDIRECTION((-1.,0.,0.));
#91=IFCAXIS2PLACEMENT3D(#88,#89,#90);
#92=IFCLOCALPLACEMENT($,#91);
#93=IFCCARTESIANPOINT((0.,8.,0.));
#94=IFCDIRECTION((0.,0.,1.));
#95=IFCDIRECTION((0.,-1.,0.));
#96=IFCAXIS2PLACEMENT3D(#93,#94,#95);
#97=IFCLOCALPLACEMENT($,#96);
#98=IFCCARTESIANPOINT((0.,0.,0.));
#99=IFCDIRECTION((0.,0.,1.));
#100=IFCDIRECTION((1.,0.,0.));
#101=IFCAXIS2PLACEMENT3D(#98,#99,#100);
#102=IFCLOCALPLACEMENT($,#101);
#103=IFCCARTESIANPOINT((12.,0.,0.));
#104=IFCDIRECTION((0.,0.,1.));
#105=IFCDIRECTION((0.,1.,0.));
#106=IFCAXIS2PLACEMENT3D(#103,#104,#105);
#107=IFCLOCALPLACEMENT($,#106);
#108=IFCDOOR('1ELt6Y1753HvqSDnK7obe5',$,'Level 01 Door 1',$,$,#196,#186,'D01',2.1,0.9,$,$,$);
#109=IFCELEMENTQUANTITY('1dTQWeWgTCDu$Lv1OrVnbS',$,'Qto_DoorBaseQuantities',$,'BaseQuantities',(#111,#112));
#110=IFCRELDEFINESBYPROPERTIES('2$B46H2JXFROtyRh_F0uO4',$,$,$,(#108),#109);
#111=IFCQUANTITYLENGTH('Height',$,$,2.1,$);
#112=IFCQUANTITYLENGTH('Width',$,$,0.9,$);
#113=IFCCARTESIANPOINTLIST2D(((0.,0.),(0.,2.1),(0.9,2.1),(0.9,0.),(0.875,0.),(0.875,2.075),(0.025,2.075),(0.025,0.)));
#114=IFCINDEXEDPOLYCURVE(#113,(IFCLINEINDEX((1,2,3,4,5,6,7,8,1))),$);
#115=IFCARBITRARYCLOSEDPROFILEDEF(.AREA.,$,#114);
#116=IFCCARTESIANPOINT((0.,0.025,0.));
#117=IFCDIRECTION((0.,-1.,0.));
#118=IFCDIRECTION((1.,0.,0.));
#119=IFCAXIS2PLACEMENT3D(#116,#117,#118);
#120=IFCDIRECTION((0.,0.,-1.));
#121=IFCEXTRUDEDAREASOLID(#115,#119,#120,0.025);
#122=IFCCARTESIANPOINTLIST2D(((0.,0.),(0.,2.1),(0.9,2.1),(0.9,0.),(0.85,0.),(0.85,2.05),(0.05,2.05),(0.05,0.)));
#123=IFCINDEXEDPOLYCURVE(#122,(IFCLINEINDEX((1,2,3,4,5,6,7,8,1))),$);
#124=IFCARBITRARYCLOSEDPROFILEDEF(.AREA.,$,#123);
#125=IFCCARTESIANPOINT((0.,0.,0.));
#126=IFCDIRECTION((0.,-1.,0.));
#127=IFCDIRECTION((1.,0.,0.));
#128=IFCAXIS2PLACEMENT3D(#125,#126,#127);
#129=IFCDIRECTION((0.,0.,-1.));
#130=IFCEXTRUDEDAREASOLID(#124,#128,#129,0.025);
#131=IFCCARTESIANPOINTLIST2D(((0.,0.),(0.8,0.),(0.8,0.1),(0.,0.1)));
#132=IFCINDEXEDPOLYCURVE(#131,(IFCLINEINDEX((1,2,3,4,1))),$);
#133=IFCARBITRARYCLOSEDPROFILEDEF(.AREA.,$,#132);
#134=IFCCARTESIANPOINT((0.05,0.,0.));
#135=IFCDIRECTION((0.,0.,1.));
#136=IFCDIRECTION((1.,0.,0.));
#137=IFCAXIS2PLACEMENT3D(#134,#135,#136);
#138=IFCDIRECTION((0.,0.,1.));
#139=IFCEXTRUDEDAREASOLID(#133,#137,#138,0.025);
#140=IFCCARTESIANPOINTLIST2D(((0.,0.),(0.,2.125),(0.95,2.125),(0.95,0.),(0.875,0.),(0.875,2.05),(0.075,2.05),(0.075,0.)));
#141=IFCINDEXEDPOLYCURVE(#140,(IFCLINEINDEX((1,2,3,4,5,6,7,8,1))),$);
#142=IFCARBITRARYCLOSEDPROFILEDEF(.AREA.,$,#141);
#143=IFCCARTESIANPOINT((-0.025,-0.005,0.));
#144=IFCDIRECTION((0.,-1.,0.));
#145=IFCDIRECTION((1.,0.,0.));
#146=IFCAXIS2PLACEMENT3D(#143,#144,#145);
#147=IFCDIRECTION((0.,0.,-1.));
#148=IFCEXTRUDEDAREASOLID(#142,#146,#147,0.005);
#149=IFCCARTESIANPOINTLIST2D(((0.,0.),(0.,2.125),(0.95,2.125),(0.95,0.),(0.9,0.),(0.9,2.075),(0.05,2.075),(0.05,0.)));
#150=IFCINDEXEDPOLYCURVE(#149,(IFCLINEINDEX((1,2,3,4,5,6,7,8,1))),$);
#151=IFCARBITRARYCLOSEDPROFILEDEF(.AREA.,$,#150);
#152=IFCCARTESIANPOINT((-0.025,0.05,0.));
#153=IFCDIRECTION((0.,-1.,0.));
#154=IFCDIRECTION((1.,0.,0.));
#155=IFCAXIS2PLACEMENT3D(#152,#153,#154);
#156=IFCDIRECTION((0.,0.,-1.));
#157=IFCEXTRUDEDAREASOLID(#151,#155,#156,0.005);
#158=IFCCARTESIANPOINTLIST2D(((0.,0.),(0.85,0.),(0.85,0.035),(0.,0.035)));
#159=IFCINDEXEDPOLYCURVE(#158,(IFCLINEINDEX((1,2,3,4,1))),$);
#160=IFCARBITRARYCLOSEDPROFILEDEF(.AREA.,$,#159);
#161=IFCCARTESIANPOINT((0.025,0.025,0.025));
#162=IFCDIRECTION((0.,0.,1.));
#163=IFCDIRECTION((1.,0.,0.));
#164=IFCAXIS2PLACEMENT3D(#161,#162,#163);
#165=IFCDIRECTION((0.,0.,1.));
#166=IFCEXTRUDEDAREASOLID(#160,#164,#165,2.05);
#167=IFCCARTESIANPOINTLIST2D(((0.,0.),(0.,-0.04),(-0.12,-0.04),(-0.12,-0.02),(-0.02,-0.02),(-0.02,0.)));
#168=IFCINDEXEDPOLYCURVE(#167,(IFCLINEINDEX((1,2,3,4,5,6,1))),$);
#169=IFCARBITRARYCLOSEDPROFILEDEF(.AREA.,$,#168);
#170=IFCCARTESIANPOINT((0.825,0.025,1.015));
#171=IFCDIRECTION((0.,0.,1.));
#172=IFCDIRECTION((1.,0.,0.));
#173=IFCAXIS2PLACEMENT3D(#170,#171,#172);
#174=IFCDIRECTION((0.,0.,1.));
#175=IFCEXTRUDEDAREASOLID(#169,#173,#174,0.02);
#176=IFCEXTRUDEDAREASOLID(#177,#180,#184,0.02);
#177=IFCARBITRARYCLOSEDPROFILEDEF(.AREA.,$,#178);
#178=IFCINDEXEDPOLYCURVE(#179,(IFCLINEINDEX((1,2,3,4,5,6,1))),$);
#179=IFCCARTESIANPOINTLIST2D(((0.,0.),(0.,0.04),(-0.12,0.04),(-0.12,0.02),(-0.02,0.02),(-0.02,0.)));
#180=IFCAXIS2PLACEMENT3D(#181,#182,#183);
#181=IFCCARTESIANPOINT((0.825,0.06,1.015));
#182=IFCDIRECTION((0.,0.,1.));
#183=IFCDIRECTION((1.,0.,0.));
#184=IFCDIRECTION((0.,0.,1.));
#185=IFCSHAPEREPRESENTATION(#15,'Body','SweptSolid',(#121,#130,#166,#175,#176,#139,#148,#157));
#186=IFCPRODUCTDEFINITIONSHAPE($,$,(#185));
#192=IFCCARTESIANPOINT((1.2,0.1,0.));
#193=IFCDIRECTION((0.,0.,1.));
#194=IFCDIRECTION((1.,0.,0.));
#195=IFCAXIS2PLACEMENT3D(#192,#193,#194);
#196=IFCLOCALPLACEMENT($,#195);
#197=IFCWINDOW('1ctyjgDIX8IAhrrKTlC1w0',$,'Level 01 Window 1',$,$,#255,#245,'W01',1.5,1.2,$,$,$);
#198=IFCELEMENTQUANTITY('07Iblj9Hn3$eFWxWFCDNya',$,'Qto_WindowBaseQuantities',$,'BaseQuantities',(#200,#201));
#199=IFCRELDEFINESBYPROPERTIES('1Y_jfEtSHCgAZ6H4xc0p82',$,$,$,(#197),#198);
#200=IFCQUANTITYLENGTH('Height',$,$,1.5,$);
#201=IFCQUANTITYLENGTH('Width',$,$,1.2,$);
#202=IFCCARTESIANPOINTLIST2D(((0.,0.),(1.2,0.),(1.2,1.5),(0.,1.5)));
#203=IFCINDEXEDPOLYCURVE(#202,(IFCLINEINDEX((1,2,3,4,1))),$);
#204=IFCCARTESIANPOINTLIST2D(((0.025,0.025),(1.175,0.025),(1.175,1.475),(0.025,1.475)));
#205=IFCINDEXEDPOLYCURVE(#204,(IFCLINEINDEX((1,2,3,4,1))),$);
#206=IFCARBITRARYPROFILEDEFWITHVOIDS(.AREA.,$,#203,(#205));
#207=IFCCARTESIANPOINT((0.,0.09,0.));
#208=IFCDIRECTION((0.,-1.,0.));
#209=IFCDIRECTION((1.,0.,0.));
#210=IFCAXIS2PLACEMENT3D(#207,#208,#209);
#211=IFCDIRECTION((0.,0.,-1.));
#212=IFCEXTRUDEDAREASOLID(#206,#210,#211,0.01);
#213=IFCCARTESIANPOINTLIST2D(((0.,0.),(1.2,0.),(1.2,1.5),(0.,1.5)));
#214=IFCINDEXEDPOLYCURVE(#213,(IFCLINEINDEX((1,2,3,4,1))),$);
#215=IFCCARTESIANPOINTLIST2D(((0.05,0.05),(1.15,0.05),(1.15,1.45),(0.05,1.45)));
#216=IFCINDEXEDPOLYCURVE(#215,(IFCLINEINDEX((1,2,3,4,1))),$);
#217=IFCARBITRARYPROFILEDEFWITHVOIDS(.AREA.,$,#214,(#216));
#218=IFCCARTESIANPOINT((0.,0.05,0.));
#219=IFCDIRECTION((0.,-1.,0.));
#220=IFCDIRECTION((1.,0.,0.));
#221=IFCAXIS2PLACEMENT3D(#218,#219,#220);
#222=IFCDIRECTION((0.,0.,-1.));
#223=IFCEXTRUDEDAREASOLID(#217,#221,#222,0.04);
#224=IFCCARTESIANPOINTLIST2D(((0.,0.),(1.15,0.),(1.15,1.45),(0.,1.45)));
#225=IFCINDEXEDPOLYCURVE(#224,(IFCLINEINDEX((1,2,3,4,1))),$);
#226=IFCCARTESIANPOINTLIST2D(((0.035,0.035),(1.115,0.035),(1.115,1.415),(0.035,1.415)));
#227=IFCINDEXEDPOLYCURVE(#226,(IFCLINEINDEX((1,2,3,4,1))),$);
#228=IFCARBITRARYPROFILEDEFWITHVOIDS(.AREA.,$,#225,(#227));
#229=IFCCARTESIANPOINT((0.025,0.09,0.025));
#230=IFCDIRECTION((0.,-1.,0.));
#231=IFCDIRECTION((1.,0.,0.));
#232=IFCAXIS2PLACEMENT3D(#229,#230,#231);
#233=IFCDIRECTION((0.,0.,-1.));
#234=IFCEXTRUDEDAREASOLID(#228,#232,#233,0.035);
#235=IFCINDEXEDPOLYCURVE(#236,(IFCLINEINDEX((1,2,3,4,1))),$);
#236=IFCCARTESIANPOINTLIST2D(((0.035,0.035),(1.115,0.035),(1.115,1.415),(0.035,1.415)));
#237=IFCARBITRARYCLOSEDPROFILEDEF(.AREA.,$,#235);
#238=IFCCARTESIANPOINT((0.025,0.1025,0.025));
#239=IFCDIRECTION((0.,-1.,0.));
#240=IFCDIRECTION((1.,0.,0.));
#241=IFCAXIS2PLACEMENT3D(#238,#239,#240);
#242=IFCDIRECTION((0.,0.,-1.));
#243=IFCEXTRUDEDAREASOLID(#237,#241,#242,0.01);
#244=IFCSHAPEREPRESENTATION(#15,'Body','SweptSolid',(#212,#223,#234,#243));
#245=IFCPRODUCTDEFINITIONSHAPE($,$,(#244));
#251=IFCCARTESIANPOINT((3.,7.9,0.8));
#252=IFCDIRECTION((0.,0.,1.));
#253=IFCDIRECTION((1.,0.,0.));
#254=IFCAXIS2PLACEMENT3D(#251,#252,#253);
#255=IFCLOCALPLACEMENT($,#254);
#256=IFCDOOR('1Vs7DPYDH9Z8T4Z81ag_KC',$,'Level 01 Door 2',$,$,#344,#334,'D02',2.1,0.9,$,$,$);
#257=IFCELEMENTQUANTITY('2poNDNJNbDJOCLJWD9LVQ8',$,'Qto_DoorBaseQuantities',$,'BaseQuantities',(#259,#260));
#258=IFCRELDEFINESBYPROPERTIES('0fmIAmkAT2q8bjgyYf6Mr3',$,$,$,(#256),#257);
#259=IFCQUANTITYLENGTH('Height',$,$,2.1,$);
#260=IFCQUANTITYLENGTH('Width',$,$,0.9,$);
#261=IFCCARTESIANPOINTLIST2D(((0.,0.),(0.,2.1),(0.9,2.1),(0.9,0.),(0.875,0.),(0.875,2.075),(0.025,2.075),(0.025,0.)));
#262=IFCINDEXEDPOLYCURVE(#261,(IFCLINEINDEX((1,2,3,4,5,6,7,8,1))),$);
#263=IFCARBITRARYCLOSEDPROFILEDEF(.AREA.,$,#262);
#264=IFCCARTESIANPOINT((0.,0.025,0.));
#265=IFCDIRECTION((0.,-1.,0.));
#266=IFCDIRECTION((1.,0.,0.));
#267=IFCAXIS2PLACEMENT3D(#264,#265,#266);
#268=IFCDIRECTION((0.,0.,-1.));
#269=IFCEXTRUDEDAREASOLID(#263,#267,#268,0.025);
#270=IFCCARTESIANPOINTLIST2D(((0.,0.),(0.,2.1),(0.9,2.1),(0.9,0.),(0.85,0.),(0.85,2.05),(0.05,2.05),(0.05,0.)));
#271=IFCINDEXEDPOLYCURVE(#270,(IFCLINEINDEX((1,2,3,4,5,6,7,8,1))),$);
#272=IFCARBITRARYCLOSEDPROFILEDEF(.AREA.,$,#271);
#273=IFCCARTESIANPOINT((0.,0.,0.));
#274=IFCDIRECTION((0.,-1.,0.));
#275=IFCDIRECTION((1.,0.,0.));
#276=IFCAXIS2PLACEMENT3D(#273,#274,#275);
#277=IFCDIRECTION((0.,0.,-1.));
#278=IFCEXTRUDEDAREASOLID(#272,#276,#277,0.025);
#279=IFCCARTESIANPOINTLIST2D(((0.,0.),(0.8,0.),(0.8,0.1),(0.,0.1)));
#280=IFCINDEXEDPOLYCURVE(#279,(IFCLINEINDEX((1,2,3,4,1))),$);
#281=IFCARBITRARYCLOSEDPROFILEDEF(.AREA.,$,#280);
#282=IFCCARTESIANPOINT((0.05,0.,0.));
#283=IFCDIRECTION((0.,0.,1.));
#284=IFCDIRECTION((1.,0.,0.));
#285=IFCAXIS2PLACEMENT3D(#282,#283,#284);
#286=IFCDIRECTION((0.,0.,1.));
#287=IFCEXTRUDEDAREASOLID(#281,#285,#286,0.025);
#288=IFCCARTESIANPOINTLIST2D(((0.,0.),(0.,2.125),(0.95,2.125),(0.95,0.),(0.875,0.),(0.875,2.05),(0.075,2.05),(0.075,0.)));
#289=IFCINDEXEDPOLYCURVE(#288,(IFCLINEINDEX((1,2,3,4,5,6,7,8,1))),$);
#290=IFCARBITRARYCLOSEDPROFILEDEF(.AREA.,$,#289);
#291=IFCCARTESIANPOINT((-0.025,-0.005,0.));
#292=IFCDIRECTION((0.,-1.,0.));
#293=IFCDIRECTION((1.,0.,0.));
#294=IFCAXIS2PLACEMENT3D(#291,#292,#293);
#295=IFCDIRECTION((0.,0.,-1.));
#296=IFCEXTRUDEDAREASOLID(#290,#294,#295,0.005);
#297=IFCCARTESIANPOINTLIST2D(((0.,0.),(0.,2.125),(0.95,2.125),(0.95,0.),(0.9,0.),(0.9,2.075),(0.05,2.075),(0.05,0.)));
#298=IFCINDEXEDPOLYCURVE(#297,(IFCLINEINDEX((1,2,3,4,5,6,7,8,1))),$);
#299=IFCARBITRARYCLOSEDPROFILEDEF(.AREA.,$,#298);
#300=IFCCARTESIANPOINT((-0.025,0.05,0.));
#301=IFCDIRECTION((0.,-1.,0.));
#302=IFCDIRECTION((1.,0.,0.));
#303=IFCAXIS2PLACEMENT3D(#300,#301,#302);
#304=IFCDIRECTION((0.,0.,-1.));
#305=IFCEXTRUDEDAREASOLID(#299,#303,#304,0.005);
#306=IFCCARTESIANPOINTLIST2D(((0.,0.),(0.85,0.),(0.85,0.035),(0.,0.035)));
#307=IFCINDEXEDPOLYCURVE(#306,(IFCLINEINDEX((1,2,3,4,1))),$);
#308=IFCARBITRARYCLOSEDPROFILEDEF(.AREA.,$,#307);
#309=IFCCARTESIANPOINT((0.025,0.025,0.025));
#310=IFCDIRECTION((0.,0.,1.));
#311=IFCDIRECTION((1.,0.,0.));
#312=IFCAXIS2PLACEMENT3D(#309,#310,#311);
#313=IFCDIRECTION((0.,0.,1.));
#314=IFCEXTRUDEDAREASOLID(#308,#312,#313,2.05);
#315=IFCCARTESIANPOINTLIST2D(((0.,0.),(0.,-0.04),(-0.12,-0.04),(-0.12,-0.02),(-0.02,-0.02),(-0.02,0.)));
#316=IFCINDEXEDPOLYCURVE(#315,(IFCLINEINDEX((1,2,3,4,5,6,1))),$);
#317=IFCARBITRARYCLOSEDPROFILEDEF(.AREA.,$,#316);
#318=IFCCARTESIANPOINT((0.825,0.025,1.015));
#319=IFCDIRECTION((0.,0.,1.));
#320=IFCDIRECTION((1.,0.,0.));
#321=IFCAXIS2PLACEMENT3D(#318,#319,#320);
#322=IFCDIRECTION((0.,0.,1.));
#323=IFCEXTRUDEDAREASOLID(#317,#321,#322,0.02);
#324=IFCEXTRUDEDAREASOLID(#325,#328,#332,0.02);
#325=IFCARBITRARYCLOSEDPROFILEDEF(.AREA.,$,#326);
#326=IFCINDEXEDPOLYCURVE(#327,(IFCLINEINDEX((1,2,3,4,5,6,1))),$);
#327=IFCCARTESIANPOINTLIST2D(((0.,0.),(0.,0.04),(-0.12,0.04),(-0.12,0.02),(-0.02,0.02),(-0.02,0.)));
#328=IFCAXIS2PLACEMENT3D(#329,#330,#331);
#329=IFCCARTESIANPOINT((0.825,0.06,1.015));
#330=IFCDIRECTION((0.,0.,1.));
#331=IFCDIRECTION((1.,0.,0.));
#332=IFCDIRECTION((0.,0.,1.));
#333=IFCSHAPEREPRESENTATION(#15,'Body','SweptSolid',(#269,#278,#314,#323,#324,#287,#296,#305));
#334=IFCPRODUCTDEFINITIONSHAPE($,$,(#333));
#340=IFCCARTESIANPOINT((3.2,0.1,0.));
#341=IFCDIRECTION((0.,0.,1.));
#342=IFCDIRECTION((1.,0.,0.));
#343=IFCAXIS2PLACEMENT3D(#340,#341,#342);
#344=IFCLOCALPLACEMENT($,#343);
#345=IFCWINDOW('2UQPdaBn99OxerXqkRvAKF',$,'Level 01 Window 2',$,$,#403,#393,'W02',1.75,1.2,$,$,$);
#346=IFCELEMENTQUANTITY('2HQPJREtT4zBm$Ypt9Ezon',$,'Qto_WindowBaseQuantities',$,'BaseQuantities',(#348,#349));
#347=IFCRELDEFINESBYPROPERTIES('25Y6q2XdX26RaF3mqGee8i',$,$,$,(#345),#346);
#348=IFCQUANTITYLENGTH('Height',$,$,1.75,$);
#349=IFCQUANTITYLENGTH('Width',$,$,1.2,$);
#350=IFCCARTESIANPOINTLIST2D(((0.,0.),(1.2,0.),(1.2,1.75),(0.,1.75)));
#351=IFCINDEXEDPOLYCURVE(#350,(IFCLINEINDEX((1,2,3,4,1))),$);
#352=IFCCARTESIANPOINTLIST2D(((0.025,0.025),(1.175,0.025),(1.175,1.725),(0.025,1.725)));
#353=IFCINDEXEDPOLYCURVE(#352,(IFCLINEINDEX((1,2,3,4,1))),$);
#354=IFCARBITRARYPROFILEDEFWITHVOIDS(.AREA.,$,#351,(#353));
#355=IFCCARTESIANPOINT((0.,0.09,0.));
#356=IFCDIRECTION((0.,-1.,0.));
#357=IFCDIRECTION((1.,0.,0.));
#358=IFCAXIS2PLACEMENT3D(#355,#356,#357);
#359=IFCDIRECTION((0.,0.,-1.));
#360=IFCEXTRUDEDAREASOLID(#354,#358,#359,0.01);
#361=IFCCARTESIANPOINTLIST2D(((0.,0.),(1.2,0.),(1.2,1.75),(0.,1.75)));
#362=IFCINDEXEDPOLYCURVE(#361,(IFCLINEINDEX((1,2,3,4,1))),$);
#363=IFCCARTESIANPOINTLIST2D(((0.05,0.05),(1.15,0.05),(1.15,1.7),(0.05,1.7)));
#364=IFCINDEXEDPOLYCURVE(#363,(IFCLINEINDEX((1,2,3,4,1))),$);
#365=IFCARBITRARYPROFILEDEFWITHVOIDS(.AREA.,$,#362,(#364));
#366=IFCCARTESIANPOINT((0.,0.05,0.));
#367=IFCDIRECTION((0.,-1.,0.));
#368=IFCDIRECTION((1.,0.,0.));
#369=IFCAXIS2PLACEMENT3D(#366,#367,#368);
#370=IFCDIRECTION((0.,0.,-1.));
#371=IFCEXTRUDEDAREASOLID(#365,#369,#370,0.04);
#372=IFCCARTESIANPOINTLIST2D(((0.,0.),(1.15,0.),(1.15,1.7),(0.,1.7)));
#373=IFCINDEXEDPOLYCURVE(#372,(IFCLINEINDEX((1,2,3,4,1))),$);
#374=IFCCARTESIANPOINTLIST2D(((0.035,0.035),(1.115,0.035),(1.115,1.665),(0.035,1.665)));
#375=IFCINDEXEDPOLYCURVE(#374,(IFCLINEINDEX((1,2,3,4,1))),$);
#376=IFCARBITRARYPROFILEDEFWITHVOIDS(.AREA.,$,#373,(#375));
#377=IFCCARTESIANPOINT((0.025,0.09,0.025));
#378=IFCDIRECTION((0.,-1.,0.));
#379=IFCDIRECTION((1.,0.,0.));
#380=IFCAXIS2PLACEMENT3D(#377,#378,#379);
#381=IFCDIRECTION((0.,0.,-1.));
#382=IFCEXTRUDEDAREASOLID(#376,#380,#381,0.035);
#383=IFCINDEXEDPOLYCURVE(#384,(IFCLINEINDEX((1,2,3,4,1))),$);
#384=IFCCARTESIANPOINTLIST2D(((0.035,0.035),(1.115,0.035),(1.115,1.665),(0.035,1.665)));
#385=IFCARBITRARYCLOSEDPROFILEDEF(.AREA.,$,#383);
#386=IFCCARTESIANPOINT((0.025,0.1025,0.025));
#387=IFCDIRECTION((0.,-1.,0.));
#388=IFCDIRECTION((1.,0.,0.));
#389=IFCAXIS2PLACEMENT3D(#386,#387,#388);
#390=IFCDIRECTION((0.,0.,-1.));
#391=IFCEXTRUDEDAREASOLID(#385,#389,#390,0.01);
#392=IFCSHAPEREPRESENTATION(#15,'Body','SweptSolid',(#360,#371,#382,#391));
#393=IFCPRODUCTDEFINITIONSHAPE($,$,(#392));
#399=IFCCARTESIANPOINT((6.,7.9,0.8));
#400=IFCDIRECTION((0.,0.,1.));
#401=IFCDIRECTION((1.,0.,0.));
#402=IFCAXIS2PLACEMENT3D(#399,#400,#401);
#403=IFCLOCALPLACEMENT($,#402);
#404=IFCWALL('1BcBvk3ln70A404KQlx50G',$,'Level 02 perimeter wall',$,$,#487,#420,$,$);
#405=IFCCARTESIANPOINTLIST2D(((0.,0.),(0.,0.2),(12.,0.2),(12.,0.),(0.,0.)));
#406=IFCINDEXEDPOLYCURVE(#405,$,.F.);
#407=IFCDIRECTION((0.,0.,1.));
#408=IFCARBITRARYCLOSEDPROFILEDEF(.AREA.,$,#406);
#409=IFCCARTESIANPOINT((0.,0.,0.));
#410=IFCDIRECTION((0.,0.,1.));
#411=IFCDIRECTION((1.,0.,0.));
#412=IFCAXIS2PLACEMENT3D(#409,#410,#411);
#413=IFCEXTRUDEDAREASOLID(#408,#412,#407,3.);
#414=IFCSHAPEREPRESENTATION(#15,'Body','SweptSolid',(#413));
#420=IFCPRODUCTDEFINITIONSHAPE($,$,(#414));
#421=IFCWALL('0g0smP8DL8UPjGWibHOe1k',$,'Level 02 perimeter wall',$,$,#492,#437,$,$);
#422=IFCCARTESIANPOINTLIST2D(((0.,0.),(0.,0.2),(8.,0.2),(8.,0.),(0.,0.)));
#423=IFCINDEXEDPOLYCURVE(#422,$,.F.);
#424=IFCDIRECTION((0.,0.,1.));
#425=IFCARBITRARYCLOSEDPROFILEDEF(.AREA.,$,#423);
#426=IFCCARTESIANPOINT((0.,0.,0.));
#427=IFCDIRECTION((0.,0.,1.));
#428=IFCDIRECTION((1.,0.,0.));
#429=IFCAXIS2PLACEMENT3D(#426,#427,#428);
#430=IFCEXTRUDEDAREASOLID(#425,#429,#424,3.);
#431=IFCSHAPEREPRESENTATION(#15,'Body','SweptSolid',(#430));
#437=IFCPRODUCTDEFINITIONSHAPE($,$,(#431));
#438=IFCWALL('2DuBVtA_XFkxNszkoJnAtE',$,'Level 02 perimeter wall',$,$,#477,#454,$,$);
#439=IFCCARTESIANPOINTLIST2D(((0.,0.),(0.,0.2),(12.,0.2),(12.,0.),(0.,0.)));
#440=IFCINDEXEDPOLYCURVE(#439,$,.F.);
#441=IFCDIRECTION((0.,0.,1.));
#442=IFCARBITRARYCLOSEDPROFILEDEF(.AREA.,$,#440);
#443=IFCCARTESIANPOINT((0.,0.,0.));
#444=IFCDIRECTION((0.,0.,1.));
#445=IFCDIRECTION((1.,0.,0.));
#446=IFCAXIS2PLACEMENT3D(#443,#444,#445);
#447=IFCEXTRUDEDAREASOLID(#442,#446,#441,3.);
#448=IFCSHAPEREPRESENTATION(#15,'Body','SweptSolid',(#447));
#454=IFCPRODUCTDEFINITIONSHAPE($,$,(#448));
#455=IFCWALL('3jiU$UyHj4K8uPiZygmyS7',$,'Level 02 perimeter wall',$,$,#482,#471,$,$);
#456=IFCCARTESIANPOINTLIST2D(((0.,0.),(0.,0.2),(8.,0.2),(8.,0.),(0.,0.)));
#457=IFCINDEXEDPOLYCURVE(#456,$,.F.);
#458=IFCDIRECTION((0.,0.,1.));
#459=IFCARBITRARYCLOSEDPROFILEDEF(.AREA.,$,#457);
#460=IFCCARTESIANPOINT((0.,0.,0.));
#461=IFCDIRECTION((0.,0.,1.));
#462=IFCDIRECTION((1.,0.,0.));
#463=IFCAXIS2PLACEMENT3D(#460,#461,#462);
#464=IFCEXTRUDEDAREASOLID(#459,#463,#458,3.);
#465=IFCSHAPEREPRESENTATION(#15,'Body','SweptSolid',(#464));
#471=IFCPRODUCTDEFINITIONSHAPE($,$,(#465));
#472=IFCRELCONTAINEDINSPATIALSTRUCTURE('2sM5NRNQvCYef$n$4sWxWr',$,$,$,(#438,#455,#404,#493,#421,#641,#582,#730),#5);
#473=IFCCARTESIANPOINT((12.,8.,3.2));
#474=IFCDIRECTION((0.,0.,1.));
#475=IFCDIRECTION((-1.,0.,0.));
#476=IFCAXIS2PLACEMENT3D(#473,#474,#475);
#477=IFCLOCALPLACEMENT($,#476);
#478=IFCCARTESIANPOINT((0.,8.,3.2));
#479=IFCDIRECTION((0.,0.,1.));
#480=IFCDIRECTION((0.,-1.,0.));
#481=IFCAXIS2PLACEMENT3D(#478,#479,#480);
#482=IFCLOCALPLACEMENT($,#481);
#483=IFCCARTESIANPOINT((0.,0.,3.2));
#484=IFCDIRECTION((0.,0.,1.));
#485=IFCDIRECTION((1.,0.,0.));
#486=IFCAXIS2PLACEMENT3D(#483,#484,#485);
#487=IFCLOCALPLACEMENT($,#486);
#488=IFCCARTESIANPOINT((12.,0.,3.2));
#489=IFCDIRECTION((0.,0.,1.));
#490=IFCDIRECTION((0.,1.,0.));
#491=IFCAXIS2PLACEMENT3D(#488,#489,#490);
#492=IFCLOCALPLACEMENT($,#491);
#493=IFCDOOR('2CUzHrWB5DGA5MhwLOegsW',$,'Level 02 Door 1',$,$,#581,#571,'D03',2.1,0.9,$,$,$);
#494=IFCELEMENTQUANTITY('0mzOQU8oP4ZO_s1uiZZxLL',$,'Qto_DoorBaseQuantities',$,'BaseQuantities',(#496,#497));
#495=IFCRELDEFINESBYPROPERTIES('0X5yX_GSD7khqywgRN0RIY',$,$,$,(#493),#494);
#496=IFCQUANTITYLENGTH('Height',$,$,2.1,$);
#497=IFCQUANTITYLENGTH('Width',$,$,0.9,$);
#498=IFCCARTESIANPOINTLIST2D(((0.,0.),(0.,2.1),(0.9,2.1),(0.9,0.),(0.875,0.),(0.875,2.075),(0.025,2.075),(0.025,0.)));
#499=IFCINDEXEDPOLYCURVE(#498,(IFCLINEINDEX((1,2,3,4,5,6,7,8,1))),$);
#500=IFCARBITRARYCLOSEDPROFILEDEF(.AREA.,$,#499);
#501=IFCCARTESIANPOINT((0.,0.025,0.));
#502=IFCDIRECTION((0.,-1.,0.));
#503=IFCDIRECTION((1.,0.,0.));
#504=IFCAXIS2PLACEMENT3D(#501,#502,#503);
#505=IFCDIRECTION((0.,0.,-1.));
#506=IFCEXTRUDEDAREASOLID(#500,#504,#505,0.025);
#507=IFCCARTESIANPOINTLIST2D(((0.,0.),(0.,2.1),(0.9,2.1),(0.9,0.),(0.85,0.),(0.85,2.05),(0.05,2.05),(0.05,0.)));
#508=IFCINDEXEDPOLYCURVE(#507,(IFCLINEINDEX((1,2,3,4,5,6,7,8,1))),$);
#509=IFCARBITRARYCLOSEDPROFILEDEF(.AREA.,$,#508);
#510=IFCCARTESIANPOINT((0.,0.,0.));
#511=IFCDIRECTION((0.,-1.,0.));
#512=IFCDIRECTION((1.,0.,0.));
#513=IFCAXIS2PLACEMENT3D(#510,#511,#512);
#514=IFCDIRECTION((0.,0.,-1.));
#515=IFCEXTRUDEDAREASOLID(#509,#513,#514,0.025);
#516=IFCCARTESIANPOINTLIST2D(((0.,0.),(0.8,0.),(0.8,0.1),(0.,0.1)));
#517=IFCINDEXEDPOLYCURVE(#516,(IFCLINEINDEX((1,2,3,4,1))),$);
#518=IFCARBITRARYCLOSEDPROFILEDEF(.AREA.,$,#517);
#519=IFCCARTESIANPOINT((0.05,0.,0.));
#520=IFCDIRECTION((0.,0.,1.));
#521=IFCDIRECTION((1.,0.,0.));
#522=IFCAXIS2PLACEMENT3D(#519,#520,#521);
#523=IFCDIRECTION((0.,0.,1.));
#524=IFCEXTRUDEDAREASOLID(#518,#522,#523,0.025);
#525=IFCCARTESIANPOINTLIST2D(((0.,0.),(0.,2.125),(0.95,2.125),(0.95,0.),(0.875,0.),(0.875,2.05),(0.075,2.05),(0.075,0.)));
#526=IFCINDEXEDPOLYCURVE(#525,(IFCLINEINDEX((1,2,3,4,5,6,7,8,1))),$);
#527=IFCARBITRARYCLOSEDPROFILEDEF(.AREA.,$,#526);
#528=IFCCARTESIANPOINT((-0.025,-0.005,0.));
#529=IFCDIRECTION((0.,-1.,0.));
#530=IFCDIRECTION((1.,0.,0.));
#531=IFCAXIS2PLACEMENT3D(#528,#529,#530);
#532=IFCDIRECTION((0.,0.,-1.));
#533=IFCEXTRUDEDAREASOLID(#527,#531,#532,0.005);
#534=IFCCARTESIANPOINTLIST2D(((0.,0.),(0.,2.125),(0.95,2.125),(0.95,0.),(0.9,0.),(0.9,2.075),(0.05,2.075),(0.05,0.)));
#535=IFCINDEXEDPOLYCURVE(#534,(IFCLINEINDEX((1,2,3,4,5,6,7,8,1))),$);
#536=IFCARBITRARYCLOSEDPROFILEDEF(.AREA.,$,#535);
#537=IFCCARTESIANPOINT((-0.025,0.05,0.));
#538=IFCDIRECTION((0.,-1.,0.));
#539=IFCDIRECTION((1.,0.,0.));
#540=IFCAXIS2PLACEMENT3D(#537,#538,#539);
#541=IFCDIRECTION((0.,0.,-1.));
#542=IFCEXTRUDEDAREASOLID(#536,#540,#541,0.005);
#543=IFCCARTESIANPOINTLIST2D(((0.,0.),(0.85,0.),(0.85,0.035),(0.,0.035)));
#544=IFCINDEXEDPOLYCURVE(#543,(IFCLINEINDEX((1,2,3,4,1))),$);
#545=IFCARBITRARYCLOSEDPROFILEDEF(.AREA.,$,#544);
#546=IFCCARTESIANPOINT((0.025,0.025,0.025));
#547=IFCDIRECTION((0.,0.,1.));
#548=IFCDIRECTION((1.,0.,0.));
#549=IFCAXIS2PLACEMENT3D(#546,#547,#548);
#550=IFCDIRECTION((0.,0.,1.));
#551=IFCEXTRUDEDAREASOLID(#545,#549,#550,2.05);
#552=IFCCARTESIANPOINTLIST2D(((0.,0.),(0.,-0.04),(-0.12,-0.04),(-0.12,-0.02),(-0.02,-0.02),(-0.02,0.)));
#553=IFCINDEXEDPOLYCURVE(#552,(IFCLINEINDEX((1,2,3,4,5,6,1))),$);
#554=IFCARBITRARYCLOSEDPROFILEDEF(.AREA.,$,#553);
#555=IFCCARTESIANPOINT((0.825,0.025,1.015));
#556=IFCDIRECTION((0.,0.,1.));
#557=IFCDIRECTION((1.,0.,0.));
#558=IFCAXIS2PLACEMENT3D(#555,#556,#557);
#559=IFCDIRECTION((0.,0.,1.));
#560=IFCEXTRUDEDAREASOLID(#554,#558,#559,0.02);
#561=IFCEXTRUDEDAREASOLID(#562,#565,#569,0.02);
#562=IFCARBITRARYCLOSEDPROFILEDEF(.AREA.,$,#563);
#563=IFCINDEXEDPOLYCURVE(#564,(IFCLINEINDEX((1,2,3,4,5,6,1))),$);
#564=IFCCARTESIANPOINTLIST2D(((0.,0.),(0.,0.04),(-0.12,0.04),(-0.12,0.02),(-0.02,0.02),(-0.02,0.)));
#565=IFCAXIS2PLACEMENT3D(#566,#567,#568);
#566=IFCCARTESIANPOINT((0.825,0.06,1.015));
#567=IFCDIRECTION((0.,0.,1.));
#568=IFCDIRECTION((1.,0.,0.));
#569=IFCDIRECTION((0.,0.,1.));
#570=IFCSHAPEREPRESENTATION(#15,'Body','SweptSolid',(#506,#515,#551,#560,#561,#524,#533,#542));
#571=IFCPRODUCTDEFINITIONSHAPE($,$,(#570));
#577=IFCCARTESIANPOINT((1.2,0.1,3.2));
#578=IFCDIRECTION((0.,0.,1.));
#579=IFCDIRECTION((1.,0.,0.));
#580=IFCAXIS2PLACEMENT3D(#577,#578,#579);
#581=IFCLOCALPLACEMENT($,#580);
#582=IFCWINDOW('1HYHJappTBFvz5P$G3g0Va',$,'Level 02 Window 1',$,$,#640,#630,'W03',1.5,1.2,$,$,$);
#583=IFCELEMENTQUANTITY('0z_cMDt$nFevoMLEdeXNoO',$,'Qto_WindowBaseQuantities',$,'BaseQuantities',(#585,#586));
#584=IFCRELDEFINESBYPROPERTIES('1ac9irqkv8I9AUL0_eEp95',$,$,$,(#582),#583);
#585=IFCQUANTITYLENGTH('Height',$,$,1.5,$);
#586=IFCQUANTITYLENGTH('Width',$,$,1.2,$);
#587=IFCCARTESIANPOINTLIST2D(((0.,0.),(1.2,0.),(1.2,1.5),(0.,1.5)));
#588=IFCINDEXEDPOLYCURVE(#587,(IFCLINEINDEX((1,2,3,4,1))),$);
#589=IFCCARTESIANPOINTLIST2D(((0.025,0.025),(1.175,0.025),(1.175,1.475),(0.025,1.475)));
#590=IFCINDEXEDPOLYCURVE(#589,(IFCLINEINDEX((1,2,3,4,1))),$);
#591=IFCARBITRARYPROFILEDEFWITHVOIDS(.AREA.,$,#588,(#590));
#592=IFCCARTESIANPOINT((0.,0.09,0.));
#593=IFCDIRECTION((0.,-1.,0.));
#594=IFCDIRECTION((1.,0.,0.));
#595=IFCAXIS2PLACEMENT3D(#592,#593,#594);
#596=IFCDIRECTION((0.,0.,-1.));
#597=IFCEXTRUDEDAREASOLID(#591,#595,#596,0.01);
#598=IFCCARTESIANPOINTLIST2D(((0.,0.),(1.2,0.),(1.2,1.5),(0.,1.5)));
#599=IFCINDEXEDPOLYCURVE(#598,(IFCLINEINDEX((1,2,3,4,1))),$);
#600=IFCCARTESIANPOINTLIST2D(((0.05,0.05),(1.15,0.05),(1.15,1.45),(0.05,1.45)));
#601=IFCINDEXEDPOLYCURVE(#600,(IFCLINEINDEX((1,2,3,4,1))),$);
#602=IFCARBITRARYPROFILEDEFWITHVOIDS(.AREA.,$,#599,(#601));
#603=IFCCARTESIANPOINT((0.,0.05,0.));
#604=IFCDIRECTION((0.,-1.,0.));
#605=IFCDIRECTION((1.,0.,0.));
#606=IFCAXIS2PLACEMENT3D(#603,#604,#605);
#607=IFCDIRECTION((0.,0.,-1.));
#608=IFCEXTRUDEDAREASOLID(#602,#606,#607,0.04);
#609=IFCCARTESIANPOINTLIST2D(((0.,0.),(1.15,0.),(1.15,1.45),(0.,1.45)));
#610=IFCINDEXEDPOLYCURVE(#609,(IFCLINEINDEX((1,2,3,4,1))),$);
#611=IFCCARTESIANPOINTLIST2D(((0.035,0.035),(1.115,0.035),(1.115,1.415),(0.035,1.415)));
#612=IFCINDEXEDPOLYCURVE(#611,(IFCLINEINDEX((1,2,3,4,1))),$);
#613=IFCARBITRARYPROFILEDEFWITHVOIDS(.AREA.,$,#610,(#612));
#614=IFCCARTESIANPOINT((0.025,0.09,0.025));
#615=IFCDIRECTION((0.,-1.,0.));
#616=IFCDIRECTION((1.,0.,0.));
#617=IFCAXIS2PLACEMENT3D(#614,#615,#616);
#618=IFCDIRECTION((0.,0.,-1.));
#619=IFCEXTRUDEDAREASOLID(#613,#617,#618,0.035);
#620=IFCINDEXEDPOLYCURVE(#621,(IFCLINEINDEX((1,2,3,4,1))),$);
#621=IFCCARTESIANPOINTLIST2D(((0.035,0.035),(1.115,0.035),(1.115,1.415),(0.035,1.415)));
#622=IFCARBITRARYCLOSEDPROFILEDEF(.AREA.,$,#620);
#623=IFCCARTESIANPOINT((0.025,0.1025,0.025));
#624=IFCDIRECTION((0.,-1.,0.));
#625=IFCDIRECTION((1.,0.,0.));
#626=IFCAXIS2PLACEMENT3D(#623,#624,#625);
#627=IFCDIRECTION((0.,0.,-1.));
#628=IFCEXTRUDEDAREASOLID(#622,#626,#627,0.01);
#629=IFCSHAPEREPRESENTATION(#15,'Body','SweptSolid',(#597,#608,#619,#628));
#630=IFCPRODUCTDEFINITIONSHAPE($,$,(#629));
#636=IFCCARTESIANPOINT((3.,7.9,4.));
#637=IFCDIRECTION((0.,0.,1.));
#638=IFCDIRECTION((1.,0.,0.));
#639=IFCAXIS2PLACEMENT3D(#636,#637,#638);
#640=IFCLOCALPLACEMENT($,#639);
#641=IFCDOOR('2Q3h71bNfBwRNWJJqzGjhL',$,'Level 02 Door 2',$,$,#729,#719,'D04',2.1,0.9,$,$,$);
#642=IFCELEMENTQUANTITY('0Iwk8v6CPBtPgw_J8MoNER',$,'Qto_DoorBaseQuantities',$,'BaseQuantities',(#644,#645));
#643=IFCRELDEFINESBYPROPERTIES('0KDYhBZ_DAFeebry7EQ4v2',$,$,$,(#641),#642);
#644=IFCQUANTITYLENGTH('Height',$,$,2.1,$);
#645=IFCQUANTITYLENGTH('Width',$,$,0.9,$);
#646=IFCCARTESIANPOINTLIST2D(((0.,0.),(0.,2.1),(0.9,2.1),(0.9,0.),(0.875,0.),(0.875,2.075),(0.025,2.075),(0.025,0.)));
#647=IFCINDEXEDPOLYCURVE(#646,(IFCLINEINDEX((1,2,3,4,5,6,7,8,1))),$);
#648=IFCARBITRARYCLOSEDPROFILEDEF(.AREA.,$,#647);
#649=IFCCARTESIANPOINT((0.,0.025,0.));
#650=IFCDIRECTION((0.,-1.,0.));
#651=IFCDIRECTION((1.,0.,0.));
#652=IFCAXIS2PLACEMENT3D(#649,#650,#651);
#653=IFCDIRECTION((0.,0.,-1.));
#654=IFCEXTRUDEDAREASOLID(#648,#652,#653,0.025);
#655=IFCCARTESIANPOINTLIST2D(((0.,0.),(0.,2.1),(0.9,2.1),(0.9,0.),(0.85,0.),(0.85,2.05),(0.05,2.05),(0.05,0.)));
#656=IFCINDEXEDPOLYCURVE(#655,(IFCLINEINDEX((1,2,3,4,5,6,7,8,1))),$);
#657=IFCARBITRARYCLOSEDPROFILEDEF(.AREA.,$,#656);
#658=IFCCARTESIANPOINT((0.,0.,0.));
#659=IFCDIRECTION((0.,-1.,0.));
#660=IFCDIRECTION((1.,0.,0.));
#661=IFCAXIS2PLACEMENT3D(#658,#659,#660);
#662=IFCDIRECTION((0.,0.,-1.));
#663=IFCEXTRUDEDAREASOLID(#657,#661,#662,0.025);
#664=IFCCARTESIANPOINTLIST2D(((0.,0.),(0.8,0.),(0.8,0.1),(0.,0.1)));
#665=IFCINDEXEDPOLYCURVE(#664,(IFCLINEINDEX((1,2,3,4,1))),$);
#666=IFCARBITRARYCLOSEDPROFILEDEF(.AREA.,$,#665);
#667=IFCCARTESIANPOINT((0.05,0.,0.));
#668=IFCDIRECTION((0.,0.,1.));
#669=IFCDIRECTION((1.,0.,0.));
#670=IFCAXIS2PLACEMENT3D(#667,#668,#669);
#671=IFCDIRECTION((0.,0.,1.));
#672=IFCEXTRUDEDAREASOLID(#666,#670,#671,0.025);
#673=IFCCARTESIANPOINTLIST2D(((0.,0.),(0.,2.125),(0.95,2.125),(0.95,0.),(0.875,0.),(0.875,2.05),(0.075,2.05),(0.075,0.)));
#674=IFCINDEXEDPOLYCURVE(#673,(IFCLINEINDEX((1,2,3,4,5,6,7,8,1))),$);
#675=IFCARBITRARYCLOSEDPROFILEDEF(.AREA.,$,#674);
#676=IFCCARTESIANPOINT((-0.025,-0.005,0.));
#677=IFCDIRECTION((0.,-1.,0.));
#678=IFCDIRECTION((1.,0.,0.));
#679=IFCAXIS2PLACEMENT3D(#676,#677,#678);
#680=IFCDIRECTION((0.,0.,-1.));
#681=IFCEXTRUDEDAREASOLID(#675,#679,#680,0.005);
#682=IFCCARTESIANPOINTLIST2D(((0.,0.),(0.,2.125),(0.95,2.125),(0.95,0.),(0.9,0.),(0.9,2.075),(0.05,2.075),(0.05,0.)));
#683=IFCINDEXEDPOLYCURVE(#682,(IFCLINEINDEX((1,2,3,4,5,6,7,8,1))),$);
#684=IFCARBITRARYCLOSEDPROFILEDEF(.AREA.,$,#683);
#685=IFCCARTESIANPOINT((-0.025,0.05,0.));
#686=IFCDIRECTION((0.,-1.,0.));
#687=IFCDIRECTION((1.,0.,0.));
#688=IFCAXIS2PLACEMENT3D(#685,#686,#687);
#689=IFCDIRECTION((0.,0.,-1.));
#690=IFCEXTRUDEDAREASOLID(#684,#688,#689,0.005);
#691=IFCCARTESIANPOINTLIST2D(((0.,0.),(0.85,0.),(0.85,0.035),(0.,0.035)));
#692=IFCINDEXEDPOLYCURVE(#691,(IFCLINEINDEX((1,2,3,4,1))),$);
#693=IFCARBITRARYCLOSEDPROFILEDEF(.AREA.,$,#692);
#694=IFCCARTESIANPOINT((0.025,0.025,0.025));
#695=IFCDIRECTION((0.,0.,1.));
#696=IFCDIRECTION((1.,0.,0.));
#697=IFCAXIS2PLACEMENT3D(#694,#695,#696);
#698=IFCDIRECTION((0.,0.,1.));
#699=IFCEXTRUDEDAREASOLID(#693,#697,#698,2.05);
#700=IFCCARTESIANPOINTLIST2D(((0.,0.),(0.,-0.04),(-0.12,-0.04),(-0.12,-0.02),(-0.02,-0.02),(-0.02,0.)));
#701=IFCINDEXEDPOLYCURVE(#700,(IFCLINEINDEX((1,2,3,4,5,6,1))),$);
#702=IFCARBITRARYCLOSEDPROFILEDEF(.AREA.,$,#701);
#703=IFCCARTESIANPOINT((0.825,0.025,1.015));
#704=IFCDIRECTION((0.,0.,1.));
#705=IFCDIRECTION((1.,0.,0.));
#706=IFCAXIS2PLACEMENT3D(#703,#704,#705);
#707=IFCDIRECTION((0.,0.,1.));
#708=IFCEXTRUDEDAREASOLID(#702,#706,#707,0.02);
#709=IFCEXTRUDEDAREASOLID(#710,#713,#717,0.02);
#710=IFCARBITRARYCLOSEDPROFILEDEF(.AREA.,$,#711);
#711=IFCINDEXEDPOLYCURVE(#712,(IFCLINEINDEX((1,2,3,4,5,6,1))),$);
#712=IFCCARTESIANPOINTLIST2D(((0.,0.),(0.,0.04),(-0.12,0.04),(-0.12,0.02),(-0.02,0.02),(-0.02,0.)));
#713=IFCAXIS2PLACEMENT3D(#714,#715,#716);
#714=IFCCARTESIANPOINT((0.825,0.06,1.015));
#715=IFCDIRECTION((0.,0.,1.));
#716=IFCDIRECTION((1.,0.,0.));
#717=IFCDIRECTION((0.,0.,1.));
#718=IFCSHAPEREPRESENTATION(#15,'Body','SweptSolid',(#654,#663,#699,#708,#709,#672,#681,#690));
#719=IFCPRODUCTDEFINITIONSHAPE($,$,(#718));
#725=IFCCARTESIANPOINT((3.2,0.1,3.2));
#726=IFCDIRECTION((0.,0.,1.));
#727=IFCDIRECTION((1.,0.,0.));
#728=IFCAXIS2PLACEMENT3D(#725,#726,#727);
#729=IFCLOCALPLACEMENT($,#728);
#730=IFCWINDOW('3sXXr6n2z4WegnkeYlPHD_',$,'Level 02 Window 2',$,$,#788,#778,'W04',1.75,1.2,$,$,$);
#731=IFCELEMENTQUANTITY('18Ka8WYEfC1wCa3LSpabhB',$,'Qto_WindowBaseQuantities',$,'BaseQuantities',(#733,#734));
#732=IFCRELDEFINESBYPROPERTIES('26uvdnICD8fRrPmhaU6XfX',$,$,$,(#730),#731);
#733=IFCQUANTITYLENGTH('Height',$,$,1.75,$);
#734=IFCQUANTITYLENGTH('Width',$,$,1.2,$);
#735=IFCCARTESIANPOINTLIST2D(((0.,0.),(1.2,0.),(1.2,1.75),(0.,1.75)));
#736=IFCINDEXEDPOLYCURVE(#735,(IFCLINEINDEX((1,2,3,4,1))),$);
#737=IFCCARTESIANPOINTLIST2D(((0.025,0.025),(1.175,0.025),(1.175,1.725),(0.025,1.725)));
#738=IFCINDEXEDPOLYCURVE(#737,(IFCLINEINDEX((1,2,3,4,1))),$);
#739=IFCARBITRARYPROFILEDEFWITHVOIDS(.AREA.,$,#736,(#738));
#740=IFCCARTESIANPOINT((0.,0.09,0.));
#741=IFCDIRECTION((0.,-1.,0.));
#742=IFCDIRECTION((1.,0.,0.));
#743=IFCAXIS2PLACEMENT3D(#740,#741,#742);
#744=IFCDIRECTION((0.,0.,-1.));
#745=IFCEXTRUDEDAREASOLID(#739,#743,#744,0.01);
#746=IFCCARTESIANPOINTLIST2D(((0.,0.),(1.2,0.),(1.2,1.75),(0.,1.75)));
#747=IFCINDEXEDPOLYCURVE(#746,(IFCLINEINDEX((1,2,3,4,1))),$);
#748=IFCCARTESIANPOINTLIST2D(((0.05,0.05),(1.15,0.05),(1.15,1.7),(0.05,1.7)));
#749=IFCINDEXEDPOLYCURVE(#748,(IFCLINEINDEX((1,2,3,4,1))),$);
#750=IFCARBITRARYPROFILEDEFWITHVOIDS(.AREA.,$,#747,(#749));
#751=IFCCARTESIANPOINT((0.,0.05,0.));
#752=IFCDIRECTION((0.,-1.,0.));
#753=IFCDIRECTION((1.,0.,0.));
#754=IFCAXIS2PLACEMENT3D(#751,#752,#753);
#755=IFCDIRECTION((0.,0.,-1.));
#756=IFCEXTRUDEDAREASOLID(#750,#754,#755,0.04);
#757=IFCCARTESIANPOINTLIST2D(((0.,0.),(1.15,0.),(1.15,1.7),(0.,1.7)));
#758=IFCINDEXEDPOLYCURVE(#757,(IFCLINEINDEX((1,2,3,4,1))),$);
#759=IFCCARTESIANPOINTLIST2D(((0.035,0.035),(1.115,0.035),(1.115,1.665),(0.035,1.665)));
#760=IFCINDEXEDPOLYCURVE(#759,(IFCLINEINDEX((1,2,3,4,1))),$);
#761=IFCARBITRARYPROFILEDEFWITHVOIDS(.AREA.,$,#758,(#760));
#762=IFCCARTESIANPOINT((0.025,0.09,0.025));
#763=IFCDIRECTION((0.,-1.,0.));
#764=IFCDIRECTION((1.,0.,0.));
#765=IFCAXIS2PLACEMENT3D(#762,#763,#764);
#766=IFCDIRECTION((0.,0.,-1.));
#767=IFCEXTRUDEDAREASOLID(#761,#765,#766,0.035);
#768=IFCINDEXEDPOLYCURVE(#769,(IFCLINEINDEX((1,2,3,4,1))),$);
#769=IFCCARTESIANPOINTLIST2D(((0.035,0.035),(1.115,0.035),(1.115,1.665),(0.035,1.665)));
#770=IFCARBITRARYCLOSEDPROFILEDEF(.AREA.,$,#768);
#771=IFCCARTESIANPOINT((0.025,0.1025,0.025));
#772=IFCDIRECTION((0.,-1.,0.));
#773=IFCDIRECTION((1.,0.,0.));
#774=IFCAXIS2PLACEMENT3D(#771,#772,#773);
#775=IFCDIRECTION((0.,0.,-1.));
#776=IFCEXTRUDEDAREASOLID(#770,#774,#775,0.01);
#777=IFCSHAPEREPRESENTATION(#15,'Body','SweptSolid',(#745,#756,#767,#776));
#778=IFCPRODUCTDEFINITIONSHAPE($,$,(#777));
#784=IFCCARTESIANPOINT((6.,7.9,4.));
#785=IFCDIRECTION((0.,0.,1.));
#786=IFCDIRECTION((1.,0.,0.));
#787=IFCAXIS2PLACEMENT3D(#784,#785,#786);
#788=IFCLOCALPLACEMENT($,#787);
ENDSEC;
END-ISO-10303-21;
