ISO-10303-21;
HEADER;
FILE_DESCRIPTION(('ViewDefinition[DesignTransferView]'),'2;1');
FILE_NAME('/dev/null','2026-09-12T10:48:43+01:00',(''),(''),'IfcOpenShell 0.8.5','IfcOpenShell 0.8.5','Nobody');
FILE_SCHEMA(('IFC4'));
ENDSEC;
DATA;
#1=IFCPROJECT('1e_3wUarHF_PCl1FXh0jmb',$,'Westgate Distribution Center',$,$,$,$,(#13),#8);
#2=IFCSITE('2VimNNwMLAPeXm4oBZ5Myd',$,'Westgate Site',$,$,$,$,$,$,$,$,$,$,$);
#3=IFCBUILDING('3Q1JycPwD8hO3UX5T66JCV',$,'Westgate Distribution Center',$,$,$,$,$,$,$,$,$);
#4=IFCBUILDINGSTOREY('1GV9MKzo58$Ak_W4NbMtyU',$,'Level 01',$,$,$,$,$,$,0.);
#5=IFCSIUNIT(*,.LENGTHUNIT.,$,.METRE.);
#6=IFCSIUNIT(*,.AREAUNIT.,$,.SQUARE_METRE.);
#7=IFCSIUNIT(*,.VOLUMEUNIT.,$,.CUBIC_METRE.);
#8=IFCUNITASSIGNMENT((#5,#6,#7));
#9=IFCCARTESIANPOINT((0.,0.,0.));
#10=IFCDIRECTION((0.,0.,1.));
#11=IFCDIRECTION((1.,0.,0.));
#12=IFCAXIS2PLACEMENT3D(#9,#10,#11);
#13=IFCGEOMETRICREPRESENTATIONCONTEXT($,'Model',3,1.0000000000000001E-05,#12,$);
#14=IFCGEOMETRICREPRESENTATIONSUBCONTEXT('Body','Model',*,*,*,*,#13,$,.MODEL_VIEW.,$);
#15=IFCRELAGGREGATES('0e7w25yD1459fO7FUbHIE0',$,$,$,#1,(#2));
#16=IFCRELAGGREGATES('18eLm$Hdv1KB6tjO4WJTnj',$,$,$,#2,(#3));
#17=IFCRELAGGREGATES('1B_SmZKbH9yg1teD5fezI5',$,$,$,#3,(#4));
#18=IFCWALL('2s8EzEBmXCJAhzknuMN9BN',$,'Level 01 perimeter wall',$,$,#106,#34,$,$);
#19=IFCCARTESIANPOINTLIST2D(((0.,0.),(0.,0.25),(20.,0.25),(20.,0.),(0.,0.)));
#20=IFCINDEXEDPOLYCURVE(#19,$,.F.);
#21=IFCDIRECTION((0.,0.,1.));
#22=IFCARBITRARYCLOSEDPROFILEDEF(.AREA.,$,#20);
#23=IFCCARTESIANPOINT((0.,0.,0.));
#24=IFCDIRECTION((0.,0.,1.));
#25=IFCDIRECTION((1.,0.,0.));
#26=IFCAXIS2PLACEMENT3D(#23,#24,#25);
#27=IFCEXTRUDEDAREASOLID(#22,#26,#21,3.5);
#28=IFCSHAPEREPRESENTATION(#14,'Body','SweptSolid',(#27));
#34=IFCPRODUCTDEFINITIONSHAPE($,$,(#28));
#35=IFCWALL('3gscwM8VH628muNLpo3UlX',$,'Level 01 perimeter wall',$,$,#91,#51,$,$);
#36=IFCCARTESIANPOINTLIST2D(((0.,0.),(0.,0.25),(14.,0.25),(14.,0.),(0.,0.)));
#37=IFCINDEXEDPOLYCURVE(#36,$,.F.);
#38=IFCDIRECTION((0.,0.,1.));
#39=IFCARBITRARYCLOSEDPROFILEDEF(.AREA.,$,#37);
#40=IFCCARTESIANPOINT((0.,0.,0.));
#41=IFCDIRECTION((0.,0.,1.));
#42=IFCDIRECTION((1.,0.,0.));
#43=IFCAXIS2PLACEMENT3D(#40,#41,#42);
#44=IFCEXTRUDEDAREASOLID(#39,#43,#38,3.5);
#45=IFCSHAPEREPRESENTATION(#14,'Body','SweptSolid',(#44));
#51=IFCPRODUCTDEFINITIONSHAPE($,$,(#45));
#52=IFCWALL('1gJdKdvLv8qu7MlU0Pvnsb',$,'Level 01 perimeter wall',$,$,#96,#68,$,$);
#53=IFCCARTESIANPOINTLIST2D(((0.,0.),(0.,0.25),(20.,0.25),(20.,0.),(0.,0.)));
#54=IFCINDEXEDPOLYCURVE(#53,$,.F.);
#55=IFCDIRECTION((0.,0.,1.));
#56=IFCARBITRARYCLOSEDPROFILEDEF(.AREA.,$,#54);
#57=IFCCARTESIANPOINT((0.,0.,0.));
#58=IFCDIRECTION((0.,0.,1.));
#59=IFCDIRECTION((1.,0.,0.));
#60=IFCAXIS2PLACEMENT3D(#57,#58,#59);
#61=IFCEXTRUDEDAREASOLID(#56,#60,#55,3.5);
#62=IFCSHAPEREPRESENTATION(#14,'Body','SweptSolid',(#61));
#68=IFCPRODUCTDEFINITIONSHAPE($,$,(#62));
#69=IFCWALL('35KfeQYknA0e5a3lCBZW4z',$,'Level 01 perimeter wall',$,$,#101,#85,$,$);
#70=IFCCARTESIANPOINTLIST2D(((0.,0.),(0.,0.25),(14.,0.25),(14.,0.),(0.,0.)));
#71=IFCINDEXEDPOLYCURVE(#70,$,.F.);
#72=IFCDIRECTION((0.,0.,1.));
#73=IFCARBITRARYCLOSEDPROFILEDEF(.AREA.,$,#71);
#74=IFCCARTESIANPOINT((0.,0.,0.));
#75=IFCDIRECTION((0.,0.,1.));
#76=IFCDIRECTION((1.,0.,0.));
#77=IFCAXIS2PLACEMENT3D(#74,#75,#76);
#78=IFCEXTRUDEDAREASOLID(#73,#77,#72,3.5);
#79=IFCSHAPEREPRESENTATION(#14,'Body','SweptSolid',(#78));
#85=IFCPRODUCTDEFINITIONSHAPE($,$,(#79));
#86=IFCRELCONTAINEDINSPATIALSTRUCTURE('31MRZxzjn4zQsowQfUC8aE',$,$,$,(#196,#18,#69,#35,#52,#107),#4);
#87=IFCCARTESIANPOINT((20.,0.,0.));
#88=IFCDIRECTION((0.,0.,1.));
#89=IFCDIRECTION((0.,1.,0.));
#90=IFCAXIS2PLACEMENT3D(#87,#88,#89);
#91=IFCLOCALPLACEMENT($,#90);
#92=IFCCARTESIANPOINT((20.,14.,0.));
#93=IFCDIRECTION((0.,0.,1.));
#94=IFCDIRECTION((-1.,0.,0.));
#95=IFCAXIS2PLACEMENT3D(#92,#93,#94);
#96=IFCLOCALPLACEMENT($,#95);
#97=IFCCARTESIANPOINT((0.,14.,0.));
#98=IFCDIRECTION((0.,0.,1.));
#99=IFCDIRECTION((0.,-1.,0.));
#100=IFCAXIS2PLACEMENT3D(#97,#98,#99);
#101=IFCLOCALPLACEMENT($,#100);
#102=IFCCARTESIANPOINT((0.,0.,0.));
#103=IFCDIRECTION((0.,0.,1.));
#104=IFCDIRECTION((1.,0.,0.));
#105=IFCAXIS2PLACEMENT3D(#102,#103,#104);
#106=IFCLOCALPLACEMENT($,#105);
#107=IFCDOOR('1oL89LQhT74RAsmydzX2FW',$,'Level 01 Door 1',$,$,#195,#185,$,2.3999999999999999,1.5,$,$,$);
#108=IFCELEMENTQUANTITY('1iVT1xbtL0agwzAkZzSWOX',$,'Qto_DoorBaseQuantities',$,'BaseQuantities',(#110,#111));
#109=IFCRELDEFINESBYPROPERTIES('3eH1cbb4zDVf2Nc$cCI6j9',$,$,$,(#107),#108);
#110=IFCQUANTITYLENGTH('Height',$,$,2.3999999999999999,$);
#111=IFCQUANTITYLENGTH('Width',$,$,1.5,$);
#112=IFCCARTESIANPOINTLIST2D(((0.,0.),(0.,2.3999999999999999),(1.5,2.3999999999999999),(1.5,0.),(1.4750000000000001,0.),(1.4750000000000001,2.375),(0.025000000000000001,2.375),(0.025000000000000001,0.)));
#113=IFCINDEXEDPOLYCURVE(#112,(IFCLINEINDEX((1,2,3,4,5,6,7,8,1))),$);
#114=IFCARBITRARYCLOSEDPROFILEDEF(.AREA.,$,#113);
#115=IFCCARTESIANPOINT((0.,0.025000000000000001,0.));
#116=IFCDIRECTION((0.,-1.,0.));
#117=IFCDIRECTION((1.,0.,0.));
#118=IFCAXIS2PLACEMENT3D(#115,#116,#117);
#119=IFCDIRECTION((0.,0.,-1.));
#120=IFCEXTRUDEDAREASOLID(#114,#118,#119,0.025000000000000001);
#121=IFCCARTESIANPOINTLIST2D(((0.,0.),(0.,2.3999999999999999),(1.5,2.3999999999999999),(1.5,0.),(1.45,0.),(1.45,2.3500000000000001),(0.050000000000000003,2.3500000000000001),(0.050000000000000003,0.)));
#122=IFCINDEXEDPOLYCURVE(#121,(IFCLINEINDEX((1,2,3,4,5,6,7,8,1))),$);
#123=IFCARBITRARYCLOSEDPROFILEDEF(.AREA.,$,#122);
#124=IFCCARTESIANPOINT((0.,0.,0.));
#125=IFCDIRECTION((0.,-1.,0.));
#126=IFCDIRECTION((1.,0.,0.));
#127=IFCAXIS2PLACEMENT3D(#124,#125,#126);
#128=IFCDIRECTION((0.,0.,-1.));
#129=IFCEXTRUDEDAREASOLID(#123,#127,#128,0.025000000000000001);
#130=IFCCARTESIANPOINTLIST2D(((0.,0.),(1.3999999999999999,0.),(1.3999999999999999,0.10000000000000001),(0.,0.10000000000000001)));
#131=IFCINDEXEDPOLYCURVE(#130,(IFCLINEINDEX((1,2,3,4,1))),$);
#132=IFCARBITRARYCLOSEDPROFILEDEF(.AREA.,$,#131);
#133=IFCCARTESIANPOINT((0.050000000000000003,0.,0.));
#134=IFCDIRECTION((0.,0.,1.));
#135=IFCDIRECTION((1.,0.,0.));
#136=IFCAXIS2PLACEMENT3D(#133,#134,#135);
#137=IFCDIRECTION((0.,0.,1.));
#138=IFCEXTRUDEDAREASOLID(#132,#136,#137,0.025000000000000001);
#139=IFCCARTESIANPOINTLIST2D(((0.,0.),(0.,2.4249999999999998),(1.55,2.4249999999999998),(1.55,0.),(1.4750000000000001,0.),(1.4750000000000001,2.3499999999999996),(0.074999999999999997,2.3499999999999996),(0.074999999999999997,0.)));
#140=IFCINDEXEDPOLYCURVE(#139,(IFCLINEINDEX((1,2,3,4,5,6,7,8,1))),$);
#141=IFCARBITRARYCLOSEDPROFILEDEF(.AREA.,$,#140);
#142=IFCCARTESIANPOINT((-0.024999999999999994,-0.0050000000000000001,0.));
#143=IFCDIRECTION((0.,-1.,0.));
#144=IFCDIRECTION((1.,0.,0.));
#145=IFCAXIS2PLACEMENT3D(#142,#143,#144);
#146=IFCDIRECTION((0.,0.,-1.));
#147=IFCEXTRUDEDAREASOLID(#141,#145,#146,0.0050000000000000001);
#148=IFCCARTESIANPOINTLIST2D(((0.,0.),(0.,2.4249999999999998),(1.55,2.4249999999999998),(1.55,0.),(1.5,0.),(1.5,2.375),(0.049999999999999996,2.375),(0.049999999999999996,0.)));
#149=IFCINDEXEDPOLYCURVE(#148,(IFCLINEINDEX((1,2,3,4,5,6,7,8,1))),$);
#150=IFCARBITRARYCLOSEDPROFILEDEF(.AREA.,$,#149);
#151=IFCCARTESIANPOINT((-0.024999999999999994,0.050000000000000003,0.));
#152=IFCDIRECTION((0.,-1.,0.));
#153=IFCDIRECTION((1.,0.,0.));
#154=IFCAXIS2PLACEMENT3D(#151,#152,#153);
#155=IFCDIRECTION((0.,0.,-1.));
#156=IFCEXTRUDEDAREASOLID(#150,#154,#155,0.0050000000000000001);
#157=IFCCARTESIANPOINTLIST2D(((0.,0.),(1.45,0.),(1.45,0.035000000000000003),(0.,0.035000000000000003)));
#158=IFCINDEXEDPOLYCURVE(#157,(IFCLINEINDEX((1,2,3,4,1))),$);
#159=IFCARBITRARYCLOSEDPROFILEDEF(.AREA.,$,#158);
#160=IFCCARTESIANPOINT((0.025000000000000001,0.025000000000000001,0.025000000000000001));
#161=IFCDIRECTION((0.,0.,1.));
#162=IFCDIRECTION((1.,0.,0.));
#163=IFCAXIS2PLACEMENT3D(#160,#161,#162);
#164=IFCDIRECTION((0.,0.,1.));
#165=IFCEXTRUDEDAREASOLID(#159,#163,#164,2.3500000000000001);
#166=IFCCARTESIANPOINTLIST2D(((0.,0.),(0.,-0.040000000000000001),(-0.12000000000000011,-0.040000000000000001),(-0.12000000000000011,-0.02),(-0.020000000000000018,-0.02),(-0.020000000000000018,0.)));
#167=IFCINDEXEDPOLYCURVE(#166,(IFCLINEINDEX((1,2,3,4,5,6,1))),$);
#168=IFCARBITRARYCLOSEDPROFILEDEF(.AREA.,$,#167);
#169=IFCCARTESIANPOINT((1.425,0.025000000000000001,1.0149999999999999));
#170=IFCDIRECTION((0.,0.,1.));
#171=IFCDIRECTION((1.,0.,0.));
#172=IFCAXIS2PLACEMENT3D(#169,#170,#171);
#173=IFCDIRECTION((0.,0.,1.));
#174=IFCEXTRUDEDAREASOLID(#168,#172,#173,0.02);
#175=IFCEXTRUDEDAREASOLID(#176,#179,#183,0.02);
#176=IFCARBITRARYCLOSEDPROFILEDEF(.AREA.,$,#177);
#177=IFCINDEXEDPOLYCURVE(#178,(IFCLINEINDEX((1,2,3,4,5,6,1))),$);
#178=IFCCARTESIANPOINTLIST2D(((0.,0.),(0.,0.040000000000000001),(-0.12000000000000011,0.040000000000000001),(-0.12000000000000011,0.020000000000000011),(-0.020000000000000018,0.020000000000000011),(-0.020000000000000018,0.)));
#179=IFCAXIS2PLACEMENT3D(#180,#181,#182);
#180=IFCCARTESIANPOINT((1.425,0.060000000000000005,1.0149999999999999));
#181=IFCDIRECTION((0.,0.,1.));
#182=IFCDIRECTION((1.,0.,0.));
#183=IFCDIRECTION((0.,0.,1.));
#184=IFCSHAPEREPRESENTATION(#14,'Body','SweptSolid',(#120,#129,#165,#174,#175,#138,#147,#156));
#185=IFCPRODUCTDEFINITIONSHAPE($,$,(#184));
#191=IFCCARTESIANPOINT((2.,0.10000000000000001,0.));
#192=IFCDIRECTION((0.,0.,1.));
#193=IFCDIRECTION((1.,0.,0.));
#194=IFCAXIS2PLACEMENT3D(#191,#192,#193);
#195=IFCLOCALPLACEMENT($,#194);
#196=IFCWINDOW('0F8iAn_JnBUPm4ZxUymstd',$,'Level 01 Window 1',$,$,#254,#244,$,2.,3.,$,$,$);
#197=IFCELEMENTQUANTITY('2BIiJyTiXCYQePpkZenRnq',$,'Qto_WindowBaseQuantities',$,'BaseQuantities',(#199,#200));
#198=IFCRELDEFINESBYPROPERTIES('13l_$WzGz0P8sBl0QUw_1l',$,$,$,(#196),#197);
#199=IFCQUANTITYLENGTH('Height',$,$,2.,$);
#200=IFCQUANTITYLENGTH('Width',$,$,3.,$);
#201=IFCCARTESIANPOINTLIST2D(((0.,0.),(3.,0.),(3.,2.),(0.,2.)));
#202=IFCINDEXEDPOLYCURVE(#201,(IFCLINEINDEX((1,2,3,4,1))),$);
#203=IFCCARTESIANPOINTLIST2D(((0.025000000000000001,0.025000000000000001),(2.9750000000000001,0.025000000000000001),(2.9750000000000001,1.9749999999999999),(0.025000000000000001,1.9749999999999999)));
#204=IFCINDEXEDPOLYCURVE(#203,(IFCLINEINDEX((1,2,3,4,1))),$);
#205=IFCARBITRARYPROFILEDEFWITHVOIDS(.AREA.,$,#202,(#204));
#206=IFCCARTESIANPOINT((0.,0.089999999999999997,0.));
#207=IFCDIRECTION((0.,-1.,0.));
#208=IFCDIRECTION((1.,0.,0.));
#209=IFCAXIS2PLACEMENT3D(#206,#207,#208);
#210=IFCDIRECTION((0.,0.,-1.));
#211=IFCEXTRUDEDAREASOLID(#205,#209,#210,0.010000000000000002);
#212=IFCCARTESIANPOINTLIST2D(((0.,0.),(3.,0.),(3.,2.),(0.,2.)));
#213=IFCINDEXEDPOLYCURVE(#212,(IFCLINEINDEX((1,2,3,4,1))),$);
#214=IFCCARTESIANPOINTLIST2D(((0.050000000000000003,0.050000000000000003),(2.9499999999999997,0.050000000000000003),(2.9499999999999997,1.95),(0.050000000000000003,1.95)));
#215=IFCINDEXEDPOLYCURVE(#214,(IFCLINEINDEX((1,2,3,4,1))),$);
#216=IFCARBITRARYPROFILEDEFWITHVOIDS(.AREA.,$,#213,(#215));
#217=IFCCARTESIANPOINT((0.,0.050000000000000003,0.));
#218=IFCDIRECTION((0.,-1.,0.));
#219=IFCDIRECTION((1.,0.,0.));
#220=IFCAXIS2PLACEMENT3D(#217,#218,#219);
#221=IFCDIRECTION((0.,0.,-1.));
#222=IFCEXTRUDEDAREASOLID(#216,#220,#221,0.040000000000000001);
#223=IFCCARTESIANPOINTLIST2D(((0.,0.),(2.9500000000000002,0.),(2.9500000000000002,1.95),(0.,1.95)));
#224=IFCINDEXEDPOLYCURVE(#223,(IFCLINEINDEX((1,2,3,4,1))),$);
#225=IFCCARTESIANPOINTLIST2D(((0.035000000000000003,0.035000000000000003),(2.9150000000000005,0.035000000000000003),(2.9150000000000005,1.9149999999999998),(0.035000000000000003,1.9149999999999998)));
#226=IFCINDEXEDPOLYCURVE(#225,(IFCLINEINDEX((1,2,3,4,1))),$);
#227=IFCARBITRARYPROFILEDEFWITHVOIDS(.AREA.,$,#224,(#226));
#228=IFCCARTESIANPOINT((0.025000000000000001,0.089999999999999997,0.025000000000000001));
#229=IFCDIRECTION((0.,-1.,0.));
#230=IFCDIRECTION((1.,0.,0.));
#231=IFCAXIS2PLACEMENT3D(#228,#229,#230);
#232=IFCDIRECTION((0.,0.,-1.));
#233=IFCEXTRUDEDAREASOLID(#227,#231,#232,0.035000000000000003);
#234=IFCINDEXEDPOLYCURVE(#235,(IFCLINEINDEX((1,2,3,4,1))),$);
#235=IFCCARTESIANPOINTLIST2D(((0.035000000000000003,0.035000000000000003),(2.9150000000000005,0.035000000000000003),(2.9150000000000005,1.9149999999999998),(0.035000000000000003,1.9149999999999998)));
#236=IFCARBITRARYCLOSEDPROFILEDEF(.AREA.,$,#234);
#237=IFCCARTESIANPOINT((0.025000000000000001,0.10250000000000001,0.025000000000000001));
#238=IFCDIRECTION((0.,-1.,0.));
#239=IFCDIRECTION((1.,0.,0.));
#240=IFCAXIS2PLACEMENT3D(#237,#238,#239);
#241=IFCDIRECTION((0.,0.,-1.));
#242=IFCEXTRUDEDAREASOLID(#236,#240,#241,0.01);
#243=IFCSHAPEREPRESENTATION(#14,'Body','SweptSolid',(#211,#222,#233,#242));
#244=IFCPRODUCTDEFINITIONSHAPE($,$,(#243));
#250=IFCCARTESIANPOINT((8.,13.9,0.80000000000000004));
#251=IFCDIRECTION((0.,0.,1.));
#252=IFCDIRECTION((1.,0.,0.));
#253=IFCAXIS2PLACEMENT3D(#250,#251,#252);
#254=IFCLOCALPLACEMENT($,#253);
ENDSEC;
END-ISO-10303-21;
